<?xml version="1.0" encoding="iso-8859-1"?>
<!-- Generator: Adobe Illustrator 19.0.0, SVG Export Plug-In . SVG Version: 6.00 Build 0)  -->
<svg version="1.1" id="Capa_1" xmlns="http://www.w3.org/2000/svg" xmlns:xlink="http://www.w3.org/1999/xlink" x="0px" y="0px"
	 viewBox="0 0 512 512" style="enable-background:new 0 0 512 512;" xml:space="preserve">
<path id="SVGCleanerId_0" style="fill:#B6E4EA;" d="M256.739,14.279v192.474c47.693-3.848,85.248-45.463,85.248-96.237
	S304.433,18.126,256.739,14.279z"/>
<polygon style="fill:#FFA600;" points="287.32,461.772 287.32,354.792 224.679,354.792 224.679,495.973 "/>
<rect x="264.179" y="354.794" style="fill:#F08740;" width="23.137" height="106.981"/>
<g>
	<path style="fill:#FFFFFF;" d="M131.87,50.938C165.916,23.778,209.061,7.545,256,7.545c110.02,0,199.209,89.189,199.209,199.209
		S366.02,405.962,256,405.962S56.791,316.774,56.791,206.753c0-54.577,18.655-100.616,54.206-136.595"/>
	<circle style="fill:#FFFFFF;" cx="256.001" cy="206.75" r="150.659"/>
</g>
<g>
	<path id="SVGCleanerId_0_1_" style="fill:#B6E4EA;" d="M256.739,14.279v192.474c47.693-3.848,85.248-45.463,85.248-96.237
		S304.433,18.126,256.739,14.279z"/>
</g>
<path style="fill:#6FC8F1;" d="M256.739,14.279v5.801c35.102,13.698,60.1,49.015,60.1,90.437c0,41.42-24.998,76.738-60.1,90.436
	v5.801c47.693-3.848,85.248-45.463,85.248-96.237C341.987,59.743,304.433,18.126,256.739,14.279z"/>
<path style="fill:#B6E4EA;" d="M62.786,208.231H255.26c-3.848-47.696-45.463-85.249-96.237-85.249
	C108.25,122.982,66.634,160.536,62.786,208.231z"/>
<path style="fill:#6FC8F1;" d="M159.024,148.13c41.421,0,76.739,24.998,90.436,60.101h5.8
	c-3.848-47.696-45.463-85.249-96.237-85.249s-92.39,37.554-96.237,85.249h5.801C82.285,173.128,117.603,148.13,159.024,148.13z"/>
<path style="fill:#B6E4EA;" d="M449.213,206.753H256.738c3.848,47.695,45.463,85.248,96.237,85.248S445.365,254.448,449.213,206.753
	z"/>
<path style="fill:#6FC8F1;" d="M352.975,266.853c-41.42,0-76.738-24.998-90.436-60.1h-5.8c3.848,47.695,45.463,85.248,96.237,85.248
	s92.39-37.554,96.237-85.248h-5.8C429.714,241.857,394.396,266.853,352.975,266.853z"/>
<path style="fill:#B6E4EA;" d="M256.738,399.228V206.753c-47.695,3.848-85.248,45.463-85.248,96.237
	S209.223,392.613,256.738,399.228z"/>
<path style="fill:#6FC8F1;" d="M193.62,302.99c0-42.597,26.439-78.738,63.118-91.547v-4.69
	c-47.694,3.848-85.248,45.463-85.248,96.237s37.734,89.623,85.248,96.238v-5.653C220.157,379.742,193.62,345.565,193.62,302.99z"/>
<circle style="fill:#4BBAED;" cx="259.461" cy="208.229" r="48.902"/>
<circle style="fill:#FFFFFF;" cx="260.165" cy="208.229" r="21.029"/>
<path style="fill:#FFA600;" d="M365.202,504.455v-11.214c0-17.223-13.961-31.184-31.184-31.184H177.981
	c-17.223,0-31.184,13.961-31.184,31.184v11.214H365.202z"/>
<path style="fill:#F08740;" d="M334.018,462.057h-23.137c17.223,0,31.184,13.961,31.184,31.184v11.214h23.137v-11.214
	C365.202,476.02,351.241,462.057,334.018,462.057z"/>
<path d="M462.753,206.753C462.753,92.749,370.004,0,256,0c-47.347,0-91.897,15.574-128.835,45.039
	c-3.257,2.598-3.791,7.345-1.193,10.604c2.598,3.256,7.346,3.79,10.603,1.193c10.803-8.618,22.311-15.95,34.379-21.955
	l16.036,29.562c-26.356,12.832-48.638,32.76-64.338,57.302c-12.601,4.515-24.281,11.363-34.361,20.342
	c-8.158,7.268-14.947,15.638-20.238,24.77c6.808-35.116,22.968-65.748,48.312-91.396c2.928-2.963,2.9-7.741-0.063-10.669
	c-2.964-2.928-7.742-2.901-10.669,0.063c-37.414,37.864-56.384,85.606-56.384,141.899c0,19.091,2.612,37.58,7.478,55.141
	c0.054,0.322,0.122,0.644,0.22,0.964c0.034,0.113,0.09,0.212,0.129,0.323c21.156,74.477,83.113,131.949,160.061,146.646v44.685
	h-5.873c-4.167,0-7.545,3.378-7.545,7.545s3.378,7.545,7.545,7.545h122.756c13.035,0,23.64,10.605,23.64,23.64v3.67H154.342v-3.67
	c0-13.035,10.605-23.64,23.64-23.64h7.482c4.167,0,7.545-3.378,7.545-7.545s-3.378-7.545-7.545-7.545h-7.482
	c-21.355,0-38.729,17.374-38.729,38.729v11.214c0,4.167,3.378,7.545,7.545,7.545h218.404c4.167,0,7.545-3.378,7.545-7.545v-11.214
	c0-21.355-17.374-38.729-38.729-38.729h-39.153v-44.685C390.353,391.59,462.753,307.475,462.753,206.753z M64.554,215.776h33.518
	c0.492,8.707,1.69,17.228,3.541,25.506l-32.084,9.831C66.811,239.692,65.117,227.88,64.554,215.776z M113.17,215.776h71.678
	l-68.763,21.07C114.612,229.989,113.62,222.956,113.17,215.776z M193.835,228.803c-1.099,1.126-2.185,2.268-3.24,3.452
	c-17.185,19.292-26.65,44.412-26.65,70.733c0,4.759,0.325,9.441,0.937,14.031c-20.574-17.03-36.316-39.692-44.851-65.602
	L193.835,228.803z M179.034,302.99c0-22.616,8.107-44.173,22.828-60.697c2.437-2.736,5.035-5.266,7.744-7.631
	c7.952,14.939,22.419,25.893,39.588,29.063v126.44C208.058,380.601,179.034,345.191,179.034,302.99z M348.772,97.883
	c16.92,14.438,30.437,32.743,39.189,53.53l-67.413,32.348c0.788-0.824,1.571-1.654,2.334-2.51
	c17.184-19.292,26.649-44.412,26.649-70.733C349.532,106.265,349.259,102.051,348.772,97.883z M447.502,199.209h-33.497
	c-0.657-13.916-3.103-27.373-7.144-40.13l30.411-14.593C443.221,161.753,446.759,180.127,447.502,199.209z M264.282,267.446
	l28.456,77.628c-9.161,2.435-18.676,3.989-28.456,4.55V267.446z M282.402,273.034c19.271,17.096,44.323,26.512,70.573,26.512
	c4.213,0,8.39-0.27,12.522-0.746c-15.498,18.409-35.546,32.865-58.389,41.631L282.402,273.034z M352.975,284.457
	c-22.616,0-44.173-8.107-60.697-22.828c-1.626-1.448-3.175-2.955-4.668-4.504c15.236-8.806,26-24.515,27.967-42.828h125.04
	c-3.32,18.07-12.704,34.645-26.945,47.331C397.148,276.35,375.592,284.457,352.975,284.457z M398.902,199.209h-75.67l69.868-33.527
	C396.315,176.388,398.296,187.618,398.902,199.209z M311.615,171.214c-1.713,1.923-3.507,3.743-5.359,5.482
	c-9.305-13.764-24.522-23.207-41.973-24.691V22.874c18.07,3.32,34.645,12.704,47.331,26.945
	c14.721,16.526,22.828,38.081,22.828,60.698C334.443,133.133,326.336,154.689,311.615,171.214z M249.194,147.478l-41.009-75.604
	c12.923-4.593,26.694-7.377,41.009-8.051V147.478z M259.462,166.874c22.805,0,41.357,18.552,41.357,41.357
	s-18.552,41.357-41.357,41.357s-41.357-18.552-41.357-41.357S236.657,166.874,259.462,166.874z M264.282,364.723
	c11.593-0.602,22.864-2.443,33.672-5.42l11.549,31.505c-14.448,4.207-29.595,6.751-45.221,7.419L264.282,364.723L264.282,364.723z
	 M323.817,386.013l-11.514-31.411c31.194-11.919,57.675-33.442,75.821-60.933c13.071-4.504,25.182-11.503,35.588-20.773
	c7.523-6.703,13.879-14.345,18.974-22.654C428.129,312.739,382.911,363.583,323.817,386.013z M431.776,130.389l-30.181,14.481
	c-12.177-28.54-32.512-52.795-58.056-69.828c-4.508-12.946-11.466-24.942-20.657-35.261c-7.114-7.986-15.289-14.653-24.196-19.895
	C358.494,33.543,407.731,75.257,431.776,130.389z M184.761,28.69c20.325-8.149,42.006-12.707,64.433-13.476v33.499
	c-16.911,0.719-33.136,4.118-48.278,9.761L184.761,28.69z M194.184,77.709l34.361,63.348c-19.128-16.519-43.74-25.618-69.52-25.618
	c-4.675,0-9.308,0.313-13.88,0.9C158.392,100.125,175.125,86.871,194.184,77.709z M98.326,153.354
	c16.525-14.721,38.081-22.828,60.697-22.828s44.173,8.107,60.697,22.828c2.89,2.575,5.554,5.328,8.031,8.205
	c-12.949,8.825-22.04,22.895-24.219,39.127H71.381C74.7,182.617,84.086,166.04,98.326,153.354z M73.604,265.646l32.001-9.806
	c11.425,34.913,34.682,64.519,65.022,84.043c8.853,23.478,26,42.953,48.384,54.94C150.403,381.354,94.811,331.169,73.604,265.646z
	 M279.776,454.227h-47.552v-42.095c7.804,0.898,15.735,1.375,23.776,1.375c8.041,0,15.971-0.478,23.776-1.375v42.095H279.776z"/>
<path d="M260.162,236.804c15.756,0,28.574-12.818,28.574-28.574s-12.818-28.574-28.574-28.574s-28.574,12.818-28.574,28.574
	S244.407,236.804,260.162,236.804z M260.162,194.746c7.436,0,13.485,6.049,13.485,13.485c0,7.436-6.049,13.485-13.485,13.485
	c-7.436,0-13.485-6.049-13.485-13.485C246.678,200.795,252.727,194.746,260.162,194.746z"/>
<g>
</g>
<g>
</g>
<g>
</g>
<g>
</g>
<g>
</g>
<g>
</g>
<g>
</g>
<g>
</g>
<g>
</g>
<g>
</g>
<g>
</g>
<g>
</g>
<g>
</g>
<g>
</g>
<g>
</g>
</svg>
