<svg id="Capa_1" enable-background="new 0 0 512 512" height="512" viewBox="0 0 512 512" width="512" xmlns="http://www.w3.org/2000/svg"><g><path d="m301 45c0 8.28-6.72 15-15 15h-45v77c0 8.28-6.72 15-15 15s-15-6.72-15-15v-77h-45c-8.28 0-15-6.72-15-15s6.72-15 15-15h120c8.28 0 15 6.72 15 15z" fill="#ff7b4a"/><path d="m301 45c0 8.28-6.72 15-15 15h-45v77c0 8.28-6.72 15-15 15v-122h60c8.28 0 15 6.72 15 15z" fill="#ff435b"/><g><path d="m490.99 444.52-26-45.02c-2.68-4.64-7.63-7.5-12.99-7.5s-10.31 2.86-12.99 7.5l-26 45.02c-3.93 6.81-6.01 14.59-6.01 22.48 0 24.81 20.19 45 45 45s45-20.19 45-45c0-7.89-2.08-15.67-6.01-22.48z" fill="#76e2f8"/></g><path d="m497 467c0 24.81-20.19 45-45 45v-120c5.36 0 10.31 2.86 12.99 7.5l26 45.02c3.93 6.81 6.01 14.59 6.01 22.48z" fill="#4bb9ec"/><path d="m512 287v60c0 8.28-6.72 15-15 15h-90c-8.28 0-15-6.72-15-15v-60c0-8.27-6.73-15-15-15h-77.98c-19.62 19.14-45.86 30-73.02 30s-53.4-10.86-73.02-30h-137.98v-120h137.98c19.62-19.14 45.86-30 73.02-30s53.4 10.86 73.02 30h77.98c74.44 0 135 60.56 135 135z" fill="#d5e8fe"/><path d="m512 287v60c0 8.28-6.72 15-15 15h-90c-8.28 0-15-6.72-15-15v-60c0-8.27-6.73-15-15-15h-77.98c-19.62 19.14-45.86 30-73.02 30v-180c27.16 0 53.4 10.86 73.02 30h77.98c74.44 0 135 60.56 135 135z" fill="#b5dbff"/><g><path d="m136 90c-24.813 0-45-20.187-45-45s20.187-45 45-45 45 20.187 45 45-20.187 45-45 45z" fill="#ff7b4a"/></g><g><path d="m316 90c-24.813 0-45-20.187-45-45s20.187-45 45-45 45 20.187 45 45-20.187 45-45 45z" fill="#ff435b"/></g><g><path d="m15 332c-8.284 0-15-6.716-15-15v-210c0-8.284 6.716-15 15-15s15 6.716 15 15v210c0 8.284-6.716 15-15 15z" fill="#596c76"/></g></g></svg>