<?xml version="1.0" encoding="iso-8859-1"?>
<!-- Generator: Adobe Illustrator 19.0.0, SVG Export Plug-In . SVG Version: 6.00 Build 0)  -->
<svg version="1.1" id="Capa_1" xmlns="http://www.w3.org/2000/svg" xmlns:xlink="http://www.w3.org/1999/xlink" x="0px" y="0px"
	 viewBox="0 0 510.432 510.432" style="enable-background:new 0 0 510.432 510.432;" xml:space="preserve">
<path style="fill:#E14B4B;" d="M475.232,166.448l-310.144,55.376v-202L475.232,75.2c19.984,3.568,34.688,22.912,34.688,45.632l0,0
	C509.92,143.536,495.216,162.88,475.232,166.448z"/>
<ellipse style="fill:#D03F3E;" cx="165.088" cy="120.832" rx="30.064" ry="101.008"/>
<g>
	<path style="fill:#E8EFF3;" d="M434.496,120.832c0,18.16-1.376,36.704-4.144,53.664l-22.096,3.952
		c2.96-15.008,5.136-34.128,5.136-57.616c0-23.472-2.176-42.624-5.136-57.616l22.096,3.952
		C433.104,84.144,434.496,102.688,434.496,120.832z"/>
	<path style="fill:#E8EFF3;" d="M353.984,120.832c0,23.488-2.368,47.952-7.104,68.464l-22.896,4.144
		c4.736-16.176,8.88-40.448,8.88-72.608s-4.144-56.432-8.88-72.608l22.896,4.144C351.616,72.896,353.984,97.36,353.984,120.832z"/>
	<path style="fill:#E8EFF3;" d="M273.28,120.832c0,29.792-3.744,60.976-11.44,83.664l-24.272,4.352
		c6.704-14.016,14.608-43.216,14.608-88s-7.888-74-14.608-88l24.272,4.336C269.536,59.872,273.28,91.04,273.28,120.832z"/>
</g>
<g>
	<path style="fill:#DDE3E9;" d="M188.992,59.232l-51.52,22.88l-40,17.6l-6.4-14.56l49.28-21.92l44.16-19.36
		C186.112,48.352,187.552,53.472,188.992,59.232z"/>
	<path style="fill:#DDE3E9;" d="M188.992,182.432c-1.44,5.76-2.88,10.88-4.48,15.36l-44.16-19.36l-49.28-21.92l6.4-14.56l40,17.6
		L188.992,182.432z"/>
</g>
<path style="fill:#3F4347;" d="M111.52,477.52V17.232C111.52,7.712,103.808,0,94.288,0S77.056,7.712,77.056,17.232V477.52H111.52z"
	/>
<path style="fill:#5B5F63;" d="M188.032,510.432H0.512c0-15.36,6.24-29.28,16.32-39.36s24-16.32,39.36-16.32h76.16
	C163.072,454.752,188.032,479.712,188.032,510.432z"/>
<g>
</g>
<g>
</g>
<g>
</g>
<g>
</g>
<g>
</g>
<g>
</g>
<g>
</g>
<g>
</g>
<g>
</g>
<g>
</g>
<g>
</g>
<g>
</g>
<g>
</g>
<g>
</g>
<g>
</g>
</svg>
